# xmcd CD database file
#
# Track frame offsets:
#	183
#	47263
#	72738
#	105293
#	131270
#	157963
#	191295
#	210850
#	234135
#
# Disc length: 3579 seconds
#
# Revision: 1
# Processed by: cddbd v1.5.2PL0 Copyright (c) Steve Scherf et al.
# Submitted via: CDex 1.50
#
DISCID=600df909
DTITLE=Philippe Carment Trio - The Bill Please !
DYEAR=1990
DGENRE=Jazz
TTITLE0=Comparaison
TTITLE1=Comme tu veux
TTITLE2=Trio éclosion
TTITLE3=Interpellation
TTITLE4=Song for myself
TTITLE5=Définitif
TTITLE6=Instants fragiles
TTITLE7=Très tard
TTITLE8=The Bill Please
EXTD=YEAR: 1990
EXTT0=
EXTT1=
EXTT2=
EXTT3=
EXTT4=
EXTT5=
EXTT6=
EXTT7=
EXTT8=
PLAYORDER=
